<svg width="16" height="16" viewBox="0 0 16 16" fill="none" xmlns="http://www.w3.org/2000/svg">
<path d="M7.50239 5.02457C7.38413 5.02457 7.26585 4.98102 7.17248 4.88765L5.18691 2.90209L3.20135 4.88765C3.02084 5.06816 2.72207 5.06816 2.54157 4.88765C2.36106 4.70715 2.36106 4.40838 2.54157 4.22787L4.85704 1.9124C4.94418 1.82526 5.06243 1.77548 5.18691 1.77548C5.3114 1.77548 5.42968 1.82526 5.51682 1.9124L7.83226 4.22787C8.01276 4.40838 8.01276 4.70715 7.83226 4.88765C7.73889 4.98102 7.62065 5.02457 7.50239 5.02457Z" fill="#292D32"/>
<path d="M5.1868 13.9129C4.9316 13.9129 4.71997 13.7013 4.71997 13.4461V2.24231C4.71997 1.98711 4.9316 1.77548 5.1868 1.77548C5.44199 1.77548 5.65362 1.98711 5.65362 2.24231V13.4461C5.65362 13.7013 5.44199 13.9129 5.1868 13.9129Z" fill="#292D32"/>
<path d="M11.7534 13.9129C11.629 13.9129 11.5107 13.8631 11.4235 13.776L9.1081 11.4605C8.92759 11.28 8.92759 10.9813 9.1081 10.8008C9.2886 10.6202 9.58737 10.6202 9.76788 10.8008L11.7534 12.7863L13.739 10.8008C13.9195 10.6202 14.2183 10.6202 14.3988 10.8008C14.5793 10.9813 14.5793 11.28 14.3988 11.4605L12.0833 13.776C11.9962 13.8631 11.8717 13.9129 11.7534 13.9129Z" fill="#292D32"/>
<path d="M11.7473 13.9129C11.4921 13.9129 11.2805 13.7013 11.2805 13.4461V2.24231C11.2805 1.98711 11.4921 1.77548 11.7473 1.77548C12.0025 1.77548 12.2141 1.98711 12.2141 2.24231V13.4461C12.2141 13.7013 12.0087 13.9129 11.7473 13.9129Z" fill="#292D32"/>
</svg>
