<svg width="9" height="9" viewBox="0 0 9 9" fill="none" xmlns="http://www.w3.org/2000/svg">
<ellipse cx="4.74882" cy="4.83807" rx="4.14588" ry="4.03717" fill="#8A74F9"/>
<path d="M5.67989 4.4061L5.56864 4.51443C4.97335 5.09411 4.37801 5.67384 3.7826 6.25363C3.66216 6.37092 3.51984 6.39661 3.3777 6.33256C3.24077 6.26986 3.16562 6.1551 3.18558 6.01635C3.20351 5.9161 3.25208 5.82346 3.32494 5.75051C3.90062 5.17979 4.48376 4.61634 5.06464 4.05069L5.17467 3.94354C5.13917 3.93763 5.10337 3.93357 5.06742 3.93137C4.83451 3.93036 4.60143 3.93256 4.36869 3.92968C4.18438 3.92765 4.05716 3.80411 4.05474 3.63241C4.05231 3.44515 4.16772 3.31958 4.36054 3.3184C4.89624 3.31502 5.43165 3.31463 5.96677 3.31722C6.18319 3.3184 6.30502 3.43231 6.30902 3.64069C6.31885 4.15795 6.32469 4.67526 6.32655 5.19264C6.32724 5.38226 6.20055 5.4938 6.00703 5.49228C5.82446 5.49059 5.70436 5.37634 5.6988 5.19213C5.6929 4.97344 5.69238 4.75458 5.68908 4.53572C5.68839 4.50125 5.68388 4.46745 5.67989 4.4061Z" fill="white"/>
</svg>
